<svg width="26" height="24" viewBox="0 0 26 24" fill="none" xmlns="http://www.w3.org/2000/svg">
<path d="M18.8269 14.8508C18.809 14.8274 18.7951 14.8012 18.7859 14.7732C18.1512 13.6061 17.1449 12.6844 15.9268 12.1542C15.9051 12.1481 15.8843 12.1391 15.865 12.1274C15.14 11.8227 14.3612 11.6661 13.5747 11.6669H9.17786C7.97485 11.6654 6.8002 12.0322 5.81184 12.718C5.79225 12.754 5.76483 12.7851 5.73161 12.809C5.69838 12.833 5.6602 12.8492 5.61989 12.8564C4.9375 13.3703 4.37337 14.0247 3.96559 14.7754C3.95685 14.8018 3.94372 14.8266 3.92676 14.8487C3.48381 15.6952 3.25244 16.6364 3.25244 17.5918C3.25244 18.5472 3.48381 19.4884 3.92676 20.3349C3.94372 20.357 3.95685 20.3818 3.96559 20.4082C4.47405 21.3477 5.22678 22.1326 6.1443 22.6798C7.06182 23.227 8.11009 23.5163 9.1784 23.5172H13.5742C14.642 23.5165 15.6898 23.2275 16.607 22.6808C17.5242 22.1341 18.2768 21.3498 18.7854 20.4109C18.7946 20.3829 18.8085 20.3567 18.8264 20.3333C19.2686 19.4873 19.4996 18.5469 19.4996 17.5923C19.4996 16.6378 19.2686 15.6974 18.8264 14.8514L18.8269 14.8508ZM9.25661 18.3552C9.26057 18.5714 9.22141 18.7862 9.14142 18.9871C9.06142 19.188 8.94219 19.371 8.7907 19.5253C8.6392 19.6796 8.45848 19.8021 8.25908 19.8858C8.05969 19.9695 7.84562 20.0125 7.62938 20.0125C7.41314 20.0125 7.19907 19.9695 6.99968 19.8858C6.80028 19.8021 6.61956 19.6796 6.46806 19.5253C6.31657 19.371 6.19734 19.188 6.11735 18.9871C6.03735 18.7862 5.99819 18.5714 6.00215 18.3552V16.8283C5.99819 16.6121 6.03735 16.3973 6.11735 16.1964C6.19734 15.9955 6.31657 15.8126 6.46806 15.6583C6.61956 15.504 6.80028 15.3814 6.99968 15.2978C7.19907 15.2141 7.41314 15.171 7.62938 15.171C7.84562 15.171 8.05969 15.2141 8.25908 15.2978C8.45848 15.3814 8.6392 15.504 8.7907 15.6583C8.94219 15.8126 9.06142 15.9955 9.14142 16.1964C9.22141 16.3973 9.26057 16.6121 9.25661 16.8283V18.3552ZM16.7543 18.3552C16.7582 18.5714 16.7191 18.7862 16.6391 18.9871C16.5591 19.188 16.4398 19.371 16.2884 19.5253C16.1369 19.6796 15.9561 19.8021 15.7567 19.8858C15.5573 19.9695 15.3433 20.0125 15.127 20.0125C14.9108 20.0125 14.6967 19.9695 14.4973 19.8858C14.2979 19.8021 14.1172 19.6796 13.9657 19.5253C13.8142 19.371 13.695 19.188 13.615 18.9871C13.535 18.7862 13.4958 18.5714 13.4998 18.3552V16.8283C13.4958 16.6121 13.535 16.3973 13.615 16.1964C13.695 15.9955 13.8142 15.8126 13.9657 15.6583C14.1172 15.504 14.2979 15.3814 14.4973 15.2978C14.6967 15.2141 14.9108 15.171 15.127 15.171C15.3433 15.171 15.5573 15.2141 15.7567 15.2978C15.9561 15.3814 16.1369 15.504 16.2884 15.6583C16.4398 15.8126 16.5591 15.9955 16.6391 16.1964C16.7191 16.3973 16.7582 16.6121 16.7543 16.8283V18.3552Z" fill="white" fill-opacity="0.8"/>
<path d="M5.84521 7.18752V12.0465C5.65668 12.16 5.47414 12.2832 5.29834 12.4156V7.08853C5.47539 7.14582 5.65932 7.17911 5.84521 7.18752Z" fill="white" fill-opacity="0.8"/>
<path d="M7.48482 5.09157C7.48493 5.39803 7.39415 5.69765 7.22395 5.95252C7.05375 6.20738 6.81179 6.40604 6.52867 6.52337C6.24555 6.6407 5.93399 6.67143 5.63341 6.61167C5.33282 6.5519 5.05672 6.40434 4.84001 6.18763C4.6233 5.97093 4.47574 5.69482 4.41597 5.39423C4.35621 5.09365 4.38694 4.78209 4.50427 4.49897C4.6216 4.21585 4.82026 3.97389 5.07513 3.80369C5.32999 3.63349 5.62961 3.54271 5.93607 3.54282C6.34665 3.54339 6.74025 3.70675 7.03057 3.99707C7.32089 4.2874 7.48425 4.68099 7.48482 5.09157Z" fill="white" fill-opacity="0.8"/>
<path d="M3.26562 20.2239H2.15328C1.38383 20.2239 0.96875 18.8677 0.96875 17.5918C0.96875 16.3159 1.38383 14.9597 2.15328 14.9597H3.26562C2.89659 15.7881 2.70588 16.6849 2.70588 17.5918C2.70588 18.4987 2.89659 19.3955 3.26562 20.2239Z" fill="white" fill-opacity="0.8"/>
<path d="M21.7831 17.5918C21.7831 18.3027 21.659 18.9923 21.4424 19.478C21.2904 19.8181 21.0208 20.2239 20.5986 20.2239H19.4868C19.8559 19.3955 20.0466 18.4987 20.0466 17.5918C20.0466 16.6849 19.8559 15.7881 19.4868 14.9597H20.6013C21.367 14.9597 21.7831 16.3159 21.7831 17.5918Z" fill="white" fill-opacity="0.8"/>
<path d="M8.70736 16.8284V18.3552C8.7106 18.4991 8.68505 18.6423 8.63221 18.7762C8.57938 18.9101 8.50032 19.0321 8.39968 19.135C8.29904 19.2379 8.17884 19.3197 8.04616 19.3756C7.91347 19.4314 7.77097 19.4602 7.62701 19.4602C7.48306 19.4602 7.34055 19.4314 7.20787 19.3756C7.07518 19.3197 6.95499 19.2379 6.85435 19.135C6.75371 19.0321 6.67465 18.9101 6.62181 18.7762C6.56897 18.6423 6.54342 18.4991 6.54666 18.3552V16.8284C6.54342 16.6844 6.56897 16.5413 6.62181 16.4074C6.67465 16.2735 6.75371 16.1515 6.85435 16.0486C6.95499 15.9456 7.07518 15.8639 7.20787 15.808C7.34055 15.7522 7.48306 15.7234 7.62701 15.7234C7.77097 15.7234 7.91347 15.7522 8.04616 15.808C8.17884 15.8639 8.29904 15.9456 8.39968 16.0486C8.50032 16.1515 8.57938 16.2735 8.63221 16.4074C8.68505 16.5413 8.7106 16.6844 8.70736 16.8284Z" fill="white" fill-opacity="0.8"/>
<path d="M16.2054 16.8284V18.3552C16.2086 18.4991 16.1831 18.6423 16.1303 18.7762C16.0774 18.9101 15.9984 19.0321 15.8977 19.135C15.7971 19.2379 15.6769 19.3197 15.5442 19.3756C15.4115 19.4314 15.269 19.4602 15.1251 19.4602C14.9811 19.4602 14.8386 19.4314 14.7059 19.3756C14.5732 19.3197 14.453 19.2379 14.3524 19.135C14.2518 19.0321 14.1727 18.9101 14.1199 18.7762C14.067 18.6423 14.0415 18.4991 14.0447 18.3552V16.8284C14.0415 16.6844 14.067 16.5413 14.1199 16.4074C14.1727 16.2735 14.2518 16.1515 14.3524 16.0486C14.453 15.9456 14.5732 15.8639 14.7059 15.808C14.8386 15.7522 14.9811 15.7234 15.1251 15.7234C15.269 15.7234 15.4115 15.7522 15.5442 15.808C15.6769 15.8639 15.7971 15.9456 15.8977 16.0486C15.9984 16.1515 16.0774 16.2735 16.1303 16.4074C16.1831 16.5413 16.2086 16.6844 16.2054 16.8284Z" fill="white" fill-opacity="0.8"/>
<path d="M24.052 0.482239H12.2597C12 0.482384 11.751 0.585622 11.5673 0.769274C11.3837 0.952926 11.2804 1.20197 11.2803 1.46169V8.60115C11.2804 8.86087 11.3837 9.10991 11.5673 9.29356C11.751 9.47721 12 9.58045 12.2597 9.5806H14.1191C14.1916 9.5806 14.2612 9.60941 14.3125 9.66069C14.3637 9.71197 14.3925 9.78152 14.3925 9.85404V11.1704C14.9392 11.2397 15.4746 11.3792 15.9856 11.5854L19.2346 9.71021C19.2591 9.6706 19.2933 9.6379 19.3339 9.61522C19.3746 9.59254 19.4204 9.58062 19.467 9.5806H24.0525C24.3122 9.58031 24.5611 9.47701 24.7446 9.29337C24.9281 9.10973 25.0313 8.86077 25.0314 8.60115V1.46169C25.0313 1.20197 24.9281 0.952926 24.7444 0.769274C24.5608 0.585622 24.3117 0.482384 24.052 0.482239ZM21.8989 6.94357H14.4128C14.3403 6.94357 14.2707 6.91476 14.2194 6.86348C14.1681 6.8122 14.1393 6.74265 14.1393 6.67013C14.1393 6.59761 14.1681 6.52806 14.2194 6.47678C14.2707 6.4255 14.3403 6.39669 14.4128 6.39669H21.8989C21.9715 6.39669 22.041 6.4255 22.0923 6.47678C22.1436 6.52806 22.1724 6.59761 22.1724 6.67013C22.1724 6.74265 22.1436 6.8122 22.0923 6.86348C22.041 6.91476 21.9715 6.94357 21.8989 6.94357ZM21.8989 3.66669H14.4128C14.3403 3.66669 14.2707 3.63788 14.2194 3.5866C14.1681 3.53532 14.1393 3.46577 14.1393 3.39325C14.1393 3.32073 14.1681 3.25118 14.2194 3.1999C14.2707 3.14863 14.3403 3.11982 14.4128 3.11982H21.8989C21.9715 3.11982 22.041 3.14863 22.0923 3.1999C22.1436 3.25118 22.1724 3.32073 22.1724 3.39325C22.1724 3.46577 22.1436 3.53532 22.0923 3.5866C22.041 3.63788 21.9715 3.66669 21.8989 3.66669Z" fill="white" fill-opacity="0.8"/>
</svg>
