<svg width="56" height="56" viewBox="0 0 56 56" fill="none" xmlns="http://www.w3.org/2000/svg">
<rect width="56" height="56" rx="28" fill="black" fill-opacity="0.2"/>
<rect x="0.5" y="0.5" width="55" height="55" rx="27.5" stroke="white" stroke-opacity="0.1"/>
<path d="M40.4099 28.2546C40.2979 29.6378 39.5251 31.0743 37.8675 31.6819C38.4191 32.7319 38.4191 34.0032 37.8115 35.1092C37.2038 36.2152 36.0978 36.9881 34.8266 37.0441C34.9358 38.0381 34.7174 39.0349 34.0537 39.8637C33.2781 40.8578 32.0069 41.4094 30.6797 41.2442C29.8508 41.135 29.078 40.7486 28.5264 40.1942L28.5796 15.7634C29.1872 15.1558 30.0188 14.7666 30.9008 14.7134C32.2281 14.6014 33.4993 15.209 34.2749 16.315C34.8266 17.1438 34.9918 18.1407 34.8266 19.0787C36.1538 19.0227 37.369 19.6331 38.0887 20.7924C38.8615 22.0076 38.8615 23.5 38.1978 24.6621C39.8023 25.3257 40.4659 26.9273 40.4099 28.2546Z" fill="white" fill-opacity="0.8"/>
<path d="M25.0993 14.7133C25.9813 14.7666 26.8129 15.1558 27.4205 15.7634V40.2501C26.8661 40.8017 26.0933 41.191 25.2645 41.3002H24.7661C23.6068 41.3002 22.5568 40.8017 21.8372 39.8637C21.2296 39.0349 20.9524 38.0381 21.1175 37.044C19.9023 36.988 18.7403 36.2712 18.1327 35.1092C17.5251 34.0031 17.5251 32.7319 18.0767 31.6819C16.475 31.1303 15.6462 29.691 15.5902 28.3106C15.5342 26.9273 16.1978 25.3817 17.8023 24.7181C17.1386 23.5 17.1386 22.0636 17.9115 20.8483C18.6871 19.6863 19.9023 19.0787 21.1736 19.1347C20.9524 18.1939 21.1736 17.1998 21.7252 16.371C22.5008 15.209 23.716 14.6013 25.0993 14.7133Z" fill="white" fill-opacity="0.8"/>
</svg>
