<svg width="194" height="48" viewBox="0 0 194 48" fill="none" xmlns="http://www.w3.org/2000/svg">
<path d="M157.128 5.79154H135.777V0.468433H160.687L159.077 4.42883C158.908 4.82628 158.639 5.15277 158.272 5.40828C157.933 5.66379 157.552 5.79154 157.128 5.79154ZM151.452 17.9708H135.777V12.7755H154.925L153.4 16.6081C153.231 17.0056 152.963 17.332 152.596 17.5876C152.257 17.8431 151.875 17.9708 151.452 17.9708ZM157.255 30.2778H135.777V24.9547H160.687L159.246 28.8725C159.105 29.2984 158.851 29.6391 158.484 29.8946C158.117 30.1501 157.707 30.2778 157.255 30.2778Z" fill="#1CBC21"/>
<path d="M177.712 30.7463C175.566 30.7463 173.546 30.363 171.654 29.5965C169.762 28.8016 168.096 27.7228 166.655 26.36C165.243 24.9689 164.114 23.3365 163.266 21.4628C162.447 19.589 162.038 17.5592 162.038 15.3731C162.038 13.1871 162.447 11.1572 163.266 9.2835C164.114 7.40977 165.243 5.79154 166.655 4.42883C168.067 3.03772 169.72 1.9589 171.612 1.19238C173.532 0.397459 175.566 0 177.712 0C179.887 0 181.92 0.397459 183.812 1.19238C185.733 1.9589 187.399 3.02353 188.811 4.38624C190.223 5.74896 191.339 7.36718 192.158 9.24092C193.005 11.1147 193.429 13.1587 193.429 15.3731C193.429 18.8935 192.341 22.0306 190.167 24.7844C189.969 24.5289 189.658 24.174 189.235 23.7198C188.839 23.2371 188.43 22.7403 188.006 22.2293C187.583 21.6899 187.215 21.1789 186.905 20.6962C186.594 20.1852 186.439 19.7736 186.439 19.4613C186.439 19.007 186.552 18.4109 186.778 17.6727C187.004 16.9346 187.117 16.1681 187.117 15.3731C187.117 14.0104 186.877 12.7471 186.396 11.5831C185.945 10.3907 185.295 9.35448 184.448 8.47439C183.629 7.5943 182.64 6.91294 181.482 6.43032C180.324 5.9193 179.068 5.66379 177.712 5.66379C176.356 5.66379 175.1 5.9193 173.942 6.43032C172.812 6.94133 171.824 7.63689 170.976 8.51697C170.157 9.39706 169.508 10.4333 169.028 11.6257C168.576 12.7897 168.35 14.0388 168.35 15.3731C168.35 16.7075 168.562 17.9566 168.985 19.1206C169.437 20.2846 170.115 21.335 171.019 22.2719C171.527 22.7829 172.021 23.2088 172.501 23.5494C173.01 23.8901 173.532 24.174 174.069 24.4011C174.605 24.5999 175.17 24.756 175.763 24.8696C176.356 24.9547 177.006 25.0257 177.712 25.0825C178.023 25.1109 178.305 25.1961 178.559 25.338C178.842 25.4516 179.082 25.6219 179.279 25.849L182.626 30.0223C180.96 30.505 179.322 30.7463 177.712 30.7463ZM187.159 31.3851C186.481 31.3851 185.945 31.1153 185.549 30.5759L177.5 20.4833C178.178 20.2562 178.941 19.9723 179.788 19.6316C180.663 19.2626 181.454 19.078 182.16 19.078C182.471 19.078 182.767 19.149 183.05 19.2909C183.36 19.4329 183.615 19.6174 183.812 19.8446L191.861 29.9372C191.72 29.9939 191.409 30.1075 190.929 30.2778C190.477 30.4198 189.983 30.5759 189.447 30.7463C188.938 30.9166 188.458 31.0586 188.006 31.1721C187.583 31.3141 187.3 31.3851 187.159 31.3851Z" fill="#1CBC21"/>
<path d="M23.9065 0.688477H30.0879V31.3837H23.9065V0.688477Z" fill="white"/>
<path d="M43.752 0.688477H49.9334V31.3837H43.752V0.688477Z" fill="white"/>
<path d="M56.4401 0.688477H58.0668C60.5822 0.688477 62.6215 0.688477 62.6215 0.688477V31.3837H56.4401V0.688477Z" fill="white"/>
<path d="M76.9362 0.688477H83.1176V31.3837H76.9362V0.688477Z" fill="white"/>
<path d="M98.4084 0.688477H104.59V31.3837H98.4084V0.688477Z" fill="white"/>
<path d="M66.2001 6.89284V0.688478L93.8537 0.688477V6.89284H66.2001Z" fill="white"/>
<path d="M98.4084 6.89284V0.688477L119.555 0.688478V6.89284L98.4084 6.89284Z" fill="white"/>
<path d="M98.4084 18.975V12.7707H116.538V14.4034C116.538 16.9282 116.538 18.975 116.538 18.975H98.4084Z" fill="white"/>
<path d="M98.4084 31.3837V25.1794H119.555V31.3837H98.4084Z" fill="white"/>
<path d="M24.4904 19.3016V17.6688C24.4904 15.144 26.5296 13.0972 29.0451 13.0972H49.9334V19.3016L24.4904 19.3016Z" fill="white"/>
<path d="M15.6707 0.688477H20.475V31.3837H15.6707V0.688477Z" fill="white"/>
<path d="M9.15058 0.688477H12.239V31.3837H9.15058V0.688477Z" fill="white"/>
<path d="M4.3463 0.688477H5.71895V31.3837H4.3463V0.688477Z" fill="white"/>
<path d="M0.571564 0.688477H1.25789V31.3837H0.571564V0.688477Z" fill="white"/>
<path d="M8.54049 38.9344V47.8347H7.17269V41.4901L4.63928 45.9656H4.47277L1.93936 41.4773V47.8347H0.571564V38.9344H2.04641L4.55603 43.3846L7.07754 38.9344H8.54049Z" fill="white"/>
<path d="M12.8767 46.4361H16.5638V47.8347H11.5089V38.9344H16.5043V40.333H12.8767V42.6471H16.207V44.033H12.8767V46.4361Z" fill="white"/>
<path d="M24.664 47.8347L24.0812 46.0419H20.5368L19.954 47.8347H18.4673L21.4883 38.9344H23.1297L26.1388 47.8347H24.664ZM20.9888 44.6687H23.6292L22.309 40.6509L20.9888 44.6687Z" fill="white"/>
<path d="M30.9047 48C30.1038 48 29.4219 47.805 28.8589 47.4151C28.3039 47.0252 27.9153 46.4912 27.6933 45.8131L28.8708 45.0756C29.2038 46.0758 29.8937 46.576 30.9404 46.576C31.4558 46.576 31.8403 46.47 32.0941 46.2581C32.3557 46.0377 32.4866 45.7537 32.4866 45.4062C32.4866 45.0417 32.3478 44.7662 32.0703 44.5797C31.7927 44.3848 31.3011 44.1729 30.5954 43.944C30.199 43.8169 29.8778 43.6982 29.632 43.588C29.3862 43.4778 29.1245 43.3252 28.847 43.1303C28.5774 42.9268 28.3752 42.6768 28.2404 42.3801C28.1056 42.0834 28.0382 41.7359 28.0382 41.3375C28.0382 40.5492 28.2999 39.9261 28.8232 39.4684C29.3466 39.0022 29.9769 38.7691 30.7144 38.7691C31.3804 38.7691 31.9632 38.9429 32.4628 39.2904C32.9623 39.6379 33.3469 40.1169 33.6165 40.7272L32.4628 41.4392C32.1139 40.6085 31.5311 40.1932 30.7144 40.1932C30.3179 40.1932 30.0007 40.2949 29.7629 40.4983C29.525 40.6933 29.406 40.9603 29.406 41.2993C29.406 41.6299 29.525 41.8927 29.7629 42.0877C30.0087 42.2741 30.4487 42.4733 31.0831 42.6852C31.4003 42.7954 31.6302 42.8802 31.7729 42.9395C31.9236 42.9904 32.1297 43.0752 32.3914 43.1938C32.661 43.3125 32.8632 43.4312 32.998 43.5498C33.1328 43.6685 33.2755 43.8169 33.4262 43.9949C33.5848 44.1729 33.6958 44.3763 33.7592 44.6052C33.8226 44.834 33.8544 45.0926 33.8544 45.3808C33.8544 46.186 33.5808 46.826 33.0337 47.3007C32.4945 47.7669 31.7848 48 30.9047 48Z" fill="white"/>
<path d="M41.6931 47.1608C41.1063 47.7203 40.3491 48 39.4214 48C38.4936 48 37.7364 47.7203 37.1496 47.1608C36.5629 46.5929 36.2695 45.8343 36.2695 44.8849V38.9344H37.6373V44.7959C37.6373 45.3384 37.784 45.7707 38.0774 46.0928C38.3787 46.4149 38.8267 46.576 39.4214 46.576C40.0161 46.576 40.4601 46.4149 40.7535 46.0928C41.0548 45.7707 41.2055 45.3384 41.2055 44.7959V38.9344H42.5733V44.8849C42.5733 45.8343 42.2799 46.5929 41.6931 47.1608Z" fill="white"/>
<path d="M50.2005 47.8347L48.4402 44.5925H46.8226V47.8347H45.4548V38.9344H48.7851C49.5305 38.9344 50.1609 39.2141 50.6763 39.7736C51.1996 40.3245 51.4613 40.9984 51.4613 41.7952C51.4613 42.3631 51.3066 42.8844 50.9974 43.3591C50.6961 43.8253 50.2996 44.1644 49.808 44.3763L51.6991 47.8347H50.2005ZM46.8226 40.3076V43.2828H48.7851C49.1499 43.2828 49.4591 43.1387 49.7129 42.8505C49.9666 42.5623 50.0935 42.2106 50.0935 41.7952C50.0935 41.3799 49.9666 41.0281 49.7129 40.7399C49.4591 40.4517 49.1499 40.3076 48.7851 40.3076H46.8226Z" fill="white"/>
<path d="M55.4253 46.4361H59.1124V47.8347H54.0575V38.9344H59.0529V40.333H55.4253V42.6471H58.7556V44.033H55.4253V46.4361Z" fill="white"/>
<path d="M71.3664 38.9344V40.333H69.0233V47.8347H67.6555V40.333H65.3005V38.9344H71.3664Z" fill="white"/>
<path d="M78.6221 38.9344H79.9899V47.8347H78.6221V43.9821H75.054V47.8347H73.6862V38.9344H75.054V42.5835H78.6221V38.9344Z" fill="white"/>
<path d="M84.3303 46.4361H88.0174V47.8347H82.9625V38.9344H87.9579V40.333H84.3303V42.6471H87.6606V44.033H84.3303V46.4361Z" fill="white"/>
<path d="M94.8596 38.9344H96.2274V47.8347H94.8596V38.9344Z" fill="white"/>
<path d="M107.168 38.9344V47.8347H105.801V41.4901L103.267 45.9656H103.101L100.567 41.4773V47.8347H99.1995V38.9344H100.674L103.184 43.3846L105.705 38.9344H107.168Z" fill="white"/>
<path d="M118.106 38.9344V47.8347H116.738V41.4901L114.205 45.9656H114.038L111.505 41.4773V47.8347H110.137V38.9344H111.612L114.121 43.3846L116.643 38.9344H118.106Z" fill="white"/>
<path d="M122.442 46.4361H126.129V47.8347H121.074V38.9344H126.07V40.333H122.442V42.6471H125.772V44.033H122.442V46.4361Z" fill="white"/>
<path d="M134.229 47.8347L133.646 46.0419H130.102L129.519 47.8347H128.033L131.054 38.9344H132.695L135.704 47.8347H134.229ZM130.554 44.6687H133.194L131.874 40.6509L130.554 44.6687Z" fill="white"/>
<path d="M140.47 48C139.669 48 138.987 47.805 138.424 47.4151C137.869 47.0252 137.481 46.4912 137.259 45.8131L138.436 45.0756C138.769 46.0758 139.459 46.576 140.506 46.576C141.021 46.576 141.406 46.47 141.659 46.2581C141.921 46.0377 142.052 45.7537 142.052 45.4062C142.052 45.0417 141.913 44.7662 141.636 44.5797C141.358 44.3848 140.866 44.1729 140.161 43.944C139.764 43.8169 139.443 43.6982 139.197 43.588C138.951 43.4778 138.69 43.3252 138.412 43.1303C138.143 42.9268 137.94 42.6768 137.806 42.3801C137.671 42.0834 137.603 41.7359 137.603 41.3375C137.603 40.5492 137.865 39.9261 138.388 39.4684C138.912 39.0022 139.542 38.7691 140.28 38.7691C140.946 38.7691 141.528 38.9429 142.028 39.2904C142.528 39.6379 142.912 40.1169 143.182 40.7272L142.028 41.4392C141.679 40.6085 141.096 40.1932 140.28 40.1932C139.883 40.1932 139.566 40.2949 139.328 40.4983C139.09 40.6933 138.971 40.9603 138.971 41.2993C138.971 41.6299 139.09 41.8927 139.328 42.0877C139.574 42.2741 140.014 42.4733 140.648 42.6852C140.966 42.7954 141.195 42.8802 141.338 42.9395C141.489 42.9904 141.695 43.0752 141.957 43.1938C142.226 43.3125 142.428 43.4312 142.563 43.5498C142.698 43.6685 142.841 43.8169 142.991 43.9949C143.15 44.1729 143.261 44.3763 143.324 44.6052C143.388 44.834 143.42 45.0926 143.42 45.3808C143.42 46.186 143.146 46.826 142.599 47.3007C142.06 47.7669 141.35 48 140.47 48Z" fill="white"/>
<path d="M151.258 47.1608C150.672 47.7203 149.914 48 148.987 48C148.059 48 147.302 47.7203 146.715 47.1608C146.128 46.5929 145.835 45.8343 145.835 44.8849V38.9344H147.203V44.7959C147.203 45.3384 147.349 45.7707 147.643 46.0928C147.944 46.4149 148.392 46.576 148.987 46.576C149.581 46.576 150.025 46.4149 150.319 46.0928C150.62 45.7707 150.771 45.3384 150.771 44.7959V38.9344H152.139V44.8849C152.139 45.8343 151.845 46.5929 151.258 47.1608Z" fill="white"/>
<path d="M159.766 47.8347L158.005 44.5925H156.388V47.8347H155.02V38.9344H158.35C159.096 38.9344 159.726 39.2141 160.242 39.7736C160.765 40.3245 161.027 40.9984 161.027 41.7952C161.027 42.3631 160.872 42.8844 160.563 43.3591C160.261 43.8253 159.865 44.1644 159.373 44.3763L161.264 47.8347H159.766ZM156.388 40.3076V43.2828H158.35C158.715 43.2828 159.024 43.1387 159.278 42.8505C159.532 42.5623 159.659 42.2106 159.659 41.7952C159.659 41.3799 159.532 41.0281 159.278 40.7399C159.024 40.4517 158.715 40.3076 158.35 40.3076H156.388Z" fill="white"/>
<path d="M169.046 47.8347L168.464 46.0419H164.919L164.336 47.8347H162.85L165.871 38.9344H167.512L170.521 47.8347H169.046ZM165.371 44.6687H168.012L166.691 40.6509L165.371 44.6687Z" fill="white"/>
<path d="M177.625 43.2193C177.99 43.4227 178.275 43.7024 178.481 44.0584C178.688 44.4144 178.791 44.8256 178.791 45.2918C178.791 46.0207 178.549 46.6268 178.065 47.11C177.582 47.5931 176.991 47.8347 176.293 47.8347H172.725V38.9344H176.031C176.713 38.9344 177.288 39.1717 177.756 39.6464C178.232 40.1126 178.47 40.6975 178.47 41.4011C178.47 42.1724 178.188 42.7785 177.625 43.2193ZM176.031 40.3076H174.093V42.6471H176.031C176.333 42.6471 176.586 42.5369 176.793 42.3165C176.999 42.0877 177.102 41.8079 177.102 41.4773C177.102 41.1468 176.999 40.8713 176.793 40.6509C176.586 40.422 176.333 40.3076 176.031 40.3076ZM176.293 46.4615C176.61 46.4615 176.876 46.3428 177.09 46.1055C177.312 45.8597 177.423 45.563 177.423 45.2155C177.423 44.8679 177.312 44.5755 177.09 44.3382C176.876 44.0923 176.61 43.9694 176.293 43.9694H174.093V46.4615H176.293Z" fill="white"/>
<path d="M182.66 46.4361H186.05V47.8347H181.293V38.9344H182.66V46.4361Z" fill="white"/>
<path d="M189.741 46.4361H193.429V47.8347H188.374V38.9344H193.369V40.333H189.741V42.6471H193.072V44.033H189.741V46.4361Z" fill="white"/>
</svg>
