<svg width="24" height="25" viewBox="0 0 24 25" fill="none" xmlns="http://www.w3.org/2000/svg">
<path d="M8.65752 20.462C7.97501 18.9357 8.32659 17.0239 9.53126 15.8518L12.4751 12.9079L15.4185 15.8518C16.6148 17.016 16.9718 18.9101 16.3054 20.4314C20.4092 18.0271 21.1471 12.0977 17.7286 8.77252C17.7287 8.77252 12.4562 3.5 12.4562 3.5L7.18413 8.77252C5.77586 10.1808 5.00029 12.0531 5.00029 14.0446C4.97653 16.6486 6.41814 19.1518 8.65752 20.462Z" fill="white"/>
<path d="M10.5621 16.883C8.9056 18.5485 10.0141 21.3764 12.3368 21.4961C14.7868 21.6232 16.1343 18.6388 14.388 16.883L12.4753 14.9698L10.5621 16.883Z" fill="white"/>
</svg>
