<svg width="28" height="28" viewBox="0 0 28 28" fill="none" xmlns="http://www.w3.org/2000/svg">
<path d="M26.1965 14.1309L22.231 18.1225L23.0787 23.6797C23.2223 24.7103 22.8048 25.7274 21.9571 26.3408C21.4743 26.693 20.9004 26.8752 20.3266 26.8752C19.909 26.8752 19.4785 26.7841 19.0871 26.5886L14 24.058L8.91288 26.5886C7.98678 27.0452 6.87793 26.9535 6.04288 26.3408C5.19514 25.7275 4.77762 24.7103 4.92122 23.6797L5.76897 18.1225L1.80346 14.1309C1.07323 13.3876 0.812415 12.3048 1.13853 11.3138C1.45124 10.3221 2.29934 9.59154 3.32989 9.42213L8.91288 8.50944L11.5345 3.48728C12.0172 2.57388 12.9564 2 14 2C15.0436 2 15.9827 2.57388 16.4655 3.48723L19.0871 8.50939L24.6701 9.42208C25.7006 9.59149 26.5487 10.3221 26.8614 11.3137C27.1875 12.3048 26.927 13.3876 26.1965 14.1309Z" fill="white" fill-opacity="0.8"/>
</svg>
